<svg xmlns="http://www.w3.org/2000/svg" width="200" height="200" viewBox="0 0 200 200" version="1.1"><path d="M 77 54.604 C 39.325 76.366, 7.713 94.878, 6.750 95.741 C 5.134 97.190, 5 100.642, 5 140.732 L 5 184.154 7.923 187.077 L 10.846 190 100 190 L 189.154 190 192.077 187.077 L 195 184.154 195 140.777 C 195 108.373, 194.696 97.096, 193.800 96.200 C 192.925 95.325, 185.008 94.994, 164.550 94.978 L 136.500 94.957 144.860 90.110 C 149.458 87.444, 153.613 84.641, 154.095 83.881 C 154.576 83.122, 154.976 68.057, 154.985 50.405 C 154.999 20.571, 154.871 18.193, 153.171 16.655 C 152.165 15.745, 150.028 15.008, 148.421 15.018 C 146.417 15.030, 124.001 27.454, 77 54.604 M 78.764 59.805 L 10.028 99.500 10.014 129.191 C 10.005 148.214, 10.365 159.107, 11.015 159.509 C 11.573 159.854, 42.961 142.383, 80.765 120.685 L 149.500 81.234 149.500 50.950 C 149.500 31.613, 149.139 20.566, 148.500 20.388 C 147.950 20.235, 116.569 37.973, 78.764 59.805 M 108.743 110.747 L 90 121.495 90 140.747 L 90 160 140 160 L 190 160 190 130 L 190 100 158.743 100 L 127.486 100 108.743 110.747 M 10 173.429 C 10 179.758, 10.391 182.249, 11.571 183.429 C 12.976 184.833, 22.372 185, 100 185 C 177.628 185, 187.024 184.833, 188.429 183.429 C 189.609 182.249, 190 179.758, 190 173.429 L 190 165 100 165 L 10 165 10 173.429" stroke="none" fill="#458cc4" fill-rule="evenodd"/><path d="M 78.764 59.805 L 10.028 99.500 10.014 129.191 C 10.005 148.214, 10.365 159.107, 11.015 159.509 C 11.573 159.854, 42.961 142.383, 80.765 120.685 L 149.500 81.234 149.500 50.950 C 149.500 31.613, 149.139 20.566, 148.500 20.388 C 147.950 20.235, 116.569 37.973, 78.764 59.805 M 108.743 110.747 L 90 121.495 90 140.747 L 90 160 140 160 L 190 160 190 130 L 190 100 158.743 100 L 127.486 100 108.743 110.747 M 10 173.429 C 10 179.758, 10.391 182.249, 11.571 183.429 C 12.976 184.833, 22.372 185, 100 185 C 177.628 185, 187.024 184.833, 188.429 183.429 C 189.609 182.249, 190 179.758, 190 173.429 L 190 165 100 165 L 10 165 10 173.429" stroke="none" fill="#ddf4fc" fill-rule="evenodd"/></svg>